<?xml version="1.0" encoding="iso-8859-1"?>
<!-- Generator: Adobe Illustrator 19.0.0, SVG Export Plug-In . SVG Version: 6.00 Build 0)  -->
<svg version="1.1" id="Layer_1" xmlns="http://www.w3.org/2000/svg" xmlns:xlink="http://www.w3.org/1999/xlink" x="0px" y="0px"
	 viewBox="0 0 512 512" style="enable-background:new 0 0 512 512;" xml:space="preserve">
<g>
	<g>
		<g>
			<path d="M447.728,119.83H341.294l-9.355-46.778c-1.527-7.639-8.234-13.137-16.023-13.137h-119.83
				c-7.789,0-14.496,5.498-16.022,13.137l-9.357,46.778h-16.282V76.255c0-9.024-7.316-16.34-16.34-16.34H66.186
				c-9.024,0-16.34,7.316-16.34,16.34v45.227C21.333,128.05,0,153.623,0,184.102v203.711c0,35.44,28.832,64.272,64.272,64.272
				h383.455c35.44,0,64.272-28.832,64.272-64.272V184.102C512,148.662,483.168,119.83,447.728,119.83z M82.527,92.596h39.217v27.234
				H82.527V92.596z M479.319,387.813c0,17.42-14.172,31.591-31.591,31.591H64.272c-17.42,0-31.591-14.172-31.591-31.591V184.102
				c0-17.42,14.172-31.591,31.591-31.591c11.899,0,106.296,0,119.83,0c7.789,0,14.496-5.498,16.022-13.137l9.357-46.778h93.038
				l9.355,46.778c1.527,7.639,8.234,13.137,16.023,13.137h119.83c17.42,0,31.591,14.172,31.591,31.591V387.813z"/>
			<path d="M256,161.77c-68.477,0-124.187,55.71-124.187,124.187c0,68.477,55.71,124.187,124.187,124.187
				s124.187-55.71,124.187-124.187S324.477,161.77,256,161.77z M256,377.464c-50.457,0-91.506-41.049-91.506-91.506
				s41.049-91.506,91.506-91.506s91.506,41.049,91.506,91.506S306.457,377.464,256,377.464z"/>
			<path d="M256,221.685c-35.44,0-64.272,28.832-64.272,64.272c0,35.44,28.832,64.272,64.272,64.272
				c35.44,0,64.272-28.832,64.272-64.272S291.44,221.685,256,221.685z M256,317.549c-17.42,0-31.591-14.172-31.591-31.591
				S238.58,254.366,256,254.366s31.592,14.172,31.592,31.592S273.42,317.549,256,317.549z"/>
			<path d="M435.745,179.745h-27.353c-9.024,0-16.34,7.316-16.34,16.34c0,9.024,7.316,16.34,16.34,16.34h27.353
				c9.024,0,16.34-7.316,16.34-16.34C452.085,187.061,444.769,179.745,435.745,179.745z"/>
		</g>
	</g>
</g>
<g>
</g>
<g>
</g>
<g>
</g>
<g>
</g>
<g>
</g>
<g>
</g>
<g>
</g>
<g>
</g>
<g>
</g>
<g>
</g>
<g>
</g>
<g>
</g>
<g>
</g>
<g>
</g>
<g>
</g>
</svg>
